{"title":"Sherlock 3x00 Many Happy Returns WEBRip x264-WALTERWHITE mp4 [P2","uid":9394825,"size":41312626,"categoryP":"video","categoryS":"tv_shows","magnet":"?xt=urn:btih:a5025b8c3306f59a635450d4857ad5ec1cdabe21&amp;dn=Sherlock+3x00+Many+Happy+Returns+WEBRip+x264-WALTERWHITE+mp4+%5BP2&amp;tr=udp%3A%2F%2Ftracker.openbittorrent.com%3A80&amp;tr=udp%3A%2F%2Fopen.demonii.com%3A1337&amp;tr=udp%3A%2F%2Ftracker.coppersurfer.tk%3A6969&amp;tr=udp%3A%2F%2Fexodus.desync.com%3A6969","seeders":12,"leechers":0,"uploader":"ValidusVyto","files":2,"time":1387960180,"description":"Sherlock.3x00.Many.Happy.Returns.WEBRip.x264-WALTERWHITE.mp4\n\nInfo:\nGeneral\nComplete name                            : Sherlock.3x00.Many.Happy.Returns.WEBRip.x264-WALTERWHITE.mp4.[P2PDL]/Sherlock.3x00.Many.Happy.Returns.WEBRip.x264-WALTERWHITE.mp4\nFormat                                   : MPEG-4\nFormat profile                           : Base Media\nCodec ID                                 : isom\nFile size                                : 39.4 MiB\nDuration                                 : 7mn 11s\nOverall bit rate mode                    : Variable\nOverall bit rate                         : 765 Kbps\nEncoded date                             : UTC 2013-12-23 14:55:33\nTagged date                              : UTC 2013-12-23 14:55:33\n\nVideo\nID                                       : 1\nFormat                                   : AVC\nFormat/Info                              : Advanced Video Codec\nFormat profile                           : &lt;a class=&quot;__cf_email__&quot; href=&quot;/cdn-cgi/l/email-protection&quot; data-cfemail=&quot;de96b7b9b69e92edf0ef&quot;&gt;[email&amp;#160;protected]&lt;/a&gt;&lt;script cf-hash='f9e31' type=&quot;text/javascript&quot;&gt;\n/* &lt;![CDATA[ */!function(){try{var t=&quot;currentScript&quot;in document?document.currentScript:function(){for(var t=document.getElementsByTagName(&quot;script&quot;),e=t.length;e--;)if(t[e].getAttribute(&quot;cf-hash&quot;))return t[e]}();if(t&amp;&amp;t.previousSibling){var e,r,n,i,c=t.previousSibling,a=c.getAttribute(&quot;data-cfemail&quot;);if(a){for(e=&quot;&quot;,r=parseInt(a.substr(0,2),16),n=2;a.length-n;n+=2)i=parseInt(a.substr(n,2),16)^r,e+=String.fromCharCode(i);e=document.createTextNode(e),c.parentNode.replaceChild(e,c)}}}catch(u){}}();/* ]]&gt; */&lt;/script&gt;\nFormat settings, CABAC                   : Yes\nFormat settings, ReFrames                : 5 frames\nCodec ID                                 : avc1\nCodec ID/Info                            : Advanced Video Coding\nDuration                                 : 7mn 11s\nBit rate                                 : 668 Kbps\nMaximum bit rate                         : 1 677 Kbps\nWidth                                    : 720 pixels\nHeight                                   : 404 pixels\nDisplay aspect ratio                     : 16:9\nFrame rate mode                          : Constant\nFrame rate                               : 25.000 fps\nColor space                              : YUV\nChroma subsampling                       : 4:2:0\nBit depth                                : 8 bits\nScan type                                : Progressive\nBits/(Pixel*Frame)                       : 0.092\nStream size                              : 34.4 MiB (87%)\nWriting library                          : x264 core 140 r2377 1ca7bb9\nEncoding settings                        : cabac=1 / ref=5 / deblock=1:0:0 / analyse=0x3:0x113 / me=umh / subme=8 / psy=1 / psy_rd=1.00:0.00 / mixed_ref=1 / me_range=16 / chroma_me=1 / trellis=1 / 8x8dct=1 / cqm=0 / deadzone=21,11 / fast_pskip=1 / chroma_qp_offset=-2 / threads=18 / lookahead_threads=3 / sliced_threads=0 / nr=0 / decimate=1 / interlaced=0 / bluray_compat=0 / constrained_intra=0 / bframes=3 / b_pyramid=2 / b_adapt=2 / b_bias=0 / direct=3 / weightb=1 / open_gop=0 / weightp=2 / keyint=250 / keyint_min=25 / scenecut=40 / intra_refresh=0 / rc_lookahead=50 / rc=crf / mbtree=1 / crf=20.0 / qcomp=0.60 / qpmin=0 / qpmax=69 / qpstep=4 / ip_ratio=1.40 / aq=1:1.00\nLanguage                                 : English\nEncoded date                             : UTC 2013-12-23 14:55:33\nTagged date                              : UTC 2013-12-23 14:55:36\nMatrix coefficients                      : BT.709\n\nAudio\nID                                       : 2\nFormat                                   : AAC\nFormat/Info                              : Advanced Audio Codec\nFormat profile                           : LC\nCodec ID                                 : 67\nDuration                                 : 7mn 11s\nBit rate mode                            : Variable\nBit rate                                 : 93.4 Kbps\nMaximum bit rate                         : 95.4 Kbps\nChannel(s)                               : 2 channels\nChannel positions                        : Front: L R\nSampling rate                            : 48.0 KHz\nCompression mode                         : Lossy\nStream size                              : 4.81 MiB (12%)\nLanguage                                 : English\nEncoded date                             : UTC 2013-12-23 14:55:35\nTagged date                              : UTC 2013-12-23 14:55:36\n\n\n\n\nScreenshots: &lt;a href=&quot;\nhttp://beeimg.com/images/p97930158461.jpg&quot; rel=&quot;nofollow&quot; target=&quot;_NEW&quot;&gt;\nhttp://beeimg.com/images/p97930158461.jpg&lt;/a&gt; &lt;a href=&quot;\nhttp://beeimg.com/images/d76991052491.jpg&quot; rel=&quot;nofollow&quot; target=&quot;_NEW&quot;&gt;\nhttp://beeimg.com/images/d76991052491.jpg&lt;/a&gt;","torrent":{"xt":"urn:btih:a5025b8c3306f59a635450d4857ad5ec1cdabe21","amp;dn":"Sherlock+3x00+Many+Happy+Returns+WEBRip+x264-WALTERWHITE+mp4+%5BP2","amp;tr":["udp%3A%2F%2Ftracker.openbittorrent.com%3A80","udp%3A%2F%2Fopen.demonii.com%3A1337","udp%3A%2F%2Ftracker.coppersurfer.tk%3A6969","udp%3A%2F%2Fexodus.desync.com%3A6969"],"infoHash":"a5025b8c3306f59a635450d4857ad5ec1cdabe21","infoHashBuffer":{"type":"Buffer","data":[165,2,91,140,51,6,245,154,99,84,80,212,133,122,213,236,28,218,190,33]},"announce":[],"urlList":[]}}